<?xml version="1.0" encoding="utf-8"?>
<svg version="1.1" xmlns="http://www.w3.org/2000/svg" xmlns:xlink="http://www.w3.org/1999/xlink" x="0px" y="0px" viewBox="0 0 256 256" enable-background="new 0 0 256 256" xml:space="preserve">
<g><g><path fill="#000000" d="M161.4,128l77.7-77.7c9.2-9.2,9.2-24.2,0-33.4s-24.2-9.2-33.4,0L128,94.6L50.3,16.9c-9.2-9.2-24.2-9.2-33.4,0s-9.2,24.2,0,33.4L94.6,128l-77.7,77.7c-9.2,9.2-9.2,24.2,0,33.4c4.6,4.6,10.6,6.9,16.7,6.9c6,0,12.1-2.3,16.7-6.9l77.7-77.7l77.7,77.7c4.6,4.6,10.6,6.9,16.7,6.9c6,0,12.1-2.3,16.7-6.9c9.2-9.2,9.2-24.2,0-33.4L161.4,128z"/></g></g>
</svg>